<?xml version="1.0" standalone="no"?>
<!DOCTYPE svg PUBLIC "-//W3C//DTD SVG 20010904//EN"
 "http://www.w3.org/TR/2001/REC-SVG-20010904/DTD/svg10.dtd">
<svg version="1.0" xmlns="http://www.w3.org/2000/svg"
 width="688.000000pt" height="688.000000pt" viewBox="0 0 688.000000 688.000000"
 preserveAspectRatio="xMidYMid meet">
<metadata>
Created by potrace 1.14, written by Peter Selinger 2001-2017
</metadata>
<g transform="translate(0.000000,688.000000) scale(0.100000,-0.100000)"
fill="#000000" stroke="none">
<path d="M3768 6374 c-76 -18 -130 -46 -185 -97 -39 -36 -93 -112 -100 -142
-1 -5 -9 -35 -16 -66 -15 -58 -15 -95 -2 -169 19 -110 15 -105 1014 -1105 520
-519 942 -947 938 -951 -5 -6 -69 -8 -93 -3 -5 1 -12 0 -16 -1 -18 -4 -79 -3
-84 3 -3 3 -17 2 -30 -3 -14 -6 -26 -6 -29 0 -3 5 -15 6 -29 0 -12 -4 -29 -5
-36 0 -7 5 -23 4 -36 0 -12 -5 -24 -6 -27 -3 -4 3 -33 5 -67 5 -34 0 -63 -2
-67 -5 -3 -3 -15 -2 -28 3 -13 5 -25 6 -28 3 -8 -7 -106 -8 -113 0 -4 3 -14 2
-23 -3 -10 -5 -23 -5 -31 0 -8 5 -21 5 -30 0 -9 -5 -22 -5 -30 0 -7 4 -23 5
-34 0 -12 -4 -30 -4 -40 0 -11 3 -36 4 -56 0 -20 -4 -45 -4 -56 0 -10 4 -31 4
-46 -1 -16 -4 -28 -4 -28 1 0 4 -16 4 -35 0 -19 -4 -37 -4 -40 1 -3 4 -16 4
-29 -1 -12 -4 -28 -5 -35 -1 -7 5 -29 5 -50 1 -20 -4 -46 -4 -57 0 -10 4 -31
4 -46 -1 -16 -4 -28 -4 -28 1 0 4 -15 4 -34 0 -19 -4 -40 -4 -47 1 -7 4 -20 4
-29 -1 -9 -5 -22 -5 -28 -1 -7 4 -35 5 -62 1 -27 -4 -55 -3 -62 1 -6 4 -19 4
-28 -1 -9 -5 -22 -5 -30 0 -8 5 -21 5 -30 0 -9 -5 -22 -5 -30 0 -7 4 -23 4
-36 0 -12 -5 -24 -6 -27 -4 -8 8 -137 10 -137 2 0 -4 -13 -3 -29 2 -16 4 -32
6 -35 3 -7 -8 -84 -8 -92 0 -3 3 -17 2 -30 -3 -14 -6 -26 -6 -29 0 -3 5 -15 6
-29 0 -12 -4 -29 -5 -36 0 -7 5 -23 4 -36 0 -12 -5 -24 -6 -27 -3 -8 7 -126 7
-134 0 -3 -3 -15 -2 -28 3 -13 5 -25 6 -28 3 -3 -3 -27 -5 -54 -4 -26 1 -56 1
-65 1 -10 0 -25 0 -33 0 -8 0 -22 0 -30 0 -8 0 -22 0 -30 0 -8 0 -22 0 -30 0
-8 0 -25 0 -37 0 -13 0 -51 1 -86 2 -34 2 -62 0 -62 -4 0 -4 -13 -3 -29 2 -16
4 -32 6 -35 3 -7 -8 -84 -8 -92 0 -3 3 -17 2 -30 -3 -14 -6 -26 -6 -29 0 -3 5
-15 6 -29 0 -12 -4 -29 -5 -36 0 -7 5 -23 4 -36 0 -12 -5 -24 -6 -27 -3 -4 3
-33 5 -67 5 -34 0 -63 -2 -67 -5 -3 -3 -15 -2 -27 2 -11 5 -30 5 -40 1 -11 -3
-37 -3 -58 0 -21 4 -38 4 -38 -1 0 -4 -13 -4 -29 1 -16 4 -32 6 -35 3 -7 -8
-84 -8 -92 0 -3 3 -17 2 -30 -3 -14 -6 -26 -6 -29 0 -3 5 -15 6 -29 0 -12 -4
-29 -5 -36 0 -7 5 -23 4 -36 0 -12 -5 -24 -6 -27 -3 -8 7 -126 7 -134 0 -3 -3
-15 -2 -27 2 -11 5 -30 5 -40 1 -11 -3 -37 -3 -58 0 -21 4 -38 4 -38 -1 0 -4
-13 -4 -29 1 -16 4 -32 6 -35 3 -7 -8 -84 -8 -92 0 -3 3 -17 2 -30 -3 -14 -6
-26 -6 -29 0 -3 5 -15 6 -29 0 -12 -4 -29 -5 -36 0 -7 5 -23 4 -36 0 -12 -5
-24 -6 -27 -3 -8 7 -126 7 -134 0 -3 -3 -15 -2 -27 2 -11 5 -30 5 -40 1 -11
-3 -37 -3 -58 0 -21 4 -38 4 -38 -1 0 -4 -13 -4 -29 1 -16 4 -32 6 -35 3 -7
-8 -84 -8 -92 0 -3 3 -17 2 -30 -3 -14 -6 -26 -6 -29 0 -3 5 -15 6 -29 0 -12
-4 -29 -5 -36 0 -7 5 -23 4 -36 0 -12 -5 -24 -6 -27 -3 -7 7 -122 7 -134 0 -4
-2 -17 -1 -28 3 -11 4 -30 4 -41 -1 -12 -4 -25 -5 -28 -2 -3 4 -6 -175 -6
-396 l0 -403 24 4 c14 3 30 1 37 -3 7 -4 20 -4 29 1 9 5 22 5 30 0 8 -5 21 -5
30 0 9 5 22 5 30 0 8 -5 21 -5 30 0 9 5 22 5 30 0 8 -5 21 -5 30 0 9 5 22 5
30 0 8 -5 21 -5 30 0 9 5 22 5 30 0 8 -5 21 -5 30 0 9 5 22 5 30 0 8 -5 21 -5
30 0 9 5 22 5 30 0 8 -5 21 -5 30 0 9 5 22 5 30 0 8 -5 21 -5 30 0 9 5 22 5
30 0 8 -5 21 -5 30 0 9 5 22 5 30 0 8 -5 21 -5 30 0 9 5 22 5 30 0 8 -5 21 -5
30 0 9 5 22 5 30 0 8 -5 21 -5 30 0 9 5 22 5 30 0 8 -5 21 -5 30 0 9 5 22 5
30 0 8 -5 21 -5 30 0 9 5 22 5 30 0 8 -5 21 -5 30 0 9 5 22 5 30 0 8 -5 21 -5
30 0 9 5 22 5 30 0 8 -5 21 -5 30 0 9 5 22 5 30 0 8 -5 21 -5 30 0 9 5 22 5
29 0 8 -4 27 -4 42 0 16 5 29 5 29 0 0 -5 13 -5 30 0 17 5 30 5 30 0 0 -5 13
-5 30 0 17 5 30 5 30 0 0 -5 13 -5 30 0 17 5 30 5 30 0 0 -5 13 -5 30 0 17 5
30 5 30 0 0 -5 13 -5 30 0 17 5 30 5 30 0 0 -5 13 -5 30 0 17 5 30 5 30 0 0
-5 13 -5 30 0 17 5 30 5 30 0 0 -5 13 -5 30 0 17 5 30 5 30 0 0 -5 13 -5 30 0
17 5 30 5 30 0 0 -5 13 -5 30 0 17 5 30 5 30 0 0 -5 13 -5 30 0 17 5 30 5 30
0 0 -5 13 -5 30 0 17 5 30 5 30 0 0 -5 13 -5 30 0 17 5 30 5 30 0 0 -5 13 -5
30 0 17 5 30 5 30 0 0 -5 13 -5 30 0 17 5 30 5 30 0 0 -5 13 -5 30 0 17 5 30
5 30 0 0 -5 13 -5 30 0 17 5 30 5 30 0 0 -5 13 -5 30 0 17 5 30 5 30 0 0 -5
13 -5 30 0 17 5 30 6 30 2 0 -4 65 -7 145 -7 80 0 145 3 145 6 0 4 16 3 35 -1
19 -4 37 -4 40 1 3 4 16 5 28 0 12 -5 31 -5 42 -1 11 4 24 5 29 2 13 -7 146
-8 146 -1 0 4 16 3 35 -1 19 -4 37 -4 40 1 3 4 16 5 28 0 12 -5 31 -5 42 -1
11 4 24 5 29 2 13 -7 146 -8 146 -1 0 4 16 3 35 -1 19 -4 37 -4 40 1 3 4 16 5
28 0 12 -5 31 -5 42 -1 11 4 24 5 29 2 13 -7 146 -8 146 -1 0 4 16 3 35 -1 19
-4 37 -4 40 1 3 4 16 4 29 -1 13 -5 26 -6 29 -4 9 9 71 10 94 2 12 -4 25 -3
28 2 3 5 18 5 35 0 17 -5 30 -5 30 0 0 5 13 5 30 0 17 -5 30 -5 30 0 0 5 13 5
30 0 17 -5 30 -5 30 0 0 5 13 5 30 0 17 -5 30 -5 30 0 0 5 13 5 30 0 17 -5 30
-5 30 0 0 5 13 5 30 0 17 -5 30 -5 30 0 0 5 13 5 30 0 17 -5 30 -5 30 0 0 5
13 5 30 0 17 -5 30 -5 30 0 0 5 13 5 30 0 17 -5 30 -5 30 0 0 5 13 5 30 0 17
-5 30 -5 30 0 0 5 13 5 30 0 17 -5 30 -5 30 0 0 5 13 5 30 0 17 -5 30 -5 30 0
0 5 13 5 30 0 17 -5 30 -5 30 0 0 5 13 5 30 0 17 -5 30 -5 30 0 0 5 13 5 30 0
17 -5 30 -5 30 0 0 5 13 5 30 0 17 -5 30 -5 30 0 0 5 13 5 30 0 17 -5 30 -5
30 0 0 5 13 5 30 0 17 -5 30 -5 30 0 0 5 13 5 30 0 17 -5 30 -5 30 0 0 5 13 5
30 0 17 -5 30 -5 30 0 0 5 13 5 30 0 17 -5 30 -5 30 0 0 5 13 5 30 0 17 -5 30
-5 30 0 0 5 13 5 30 0 17 -5 30 -5 30 0 0 5 13 5 30 0 18 -5 32 -5 35 1 4 5
13 5 23 0 9 -4 24 -6 32 -3 8 2 -410 -422 -930 -943 -520 -520 -949 -952 -955
-958 -15 -18 -56 -94 -60 -114 -3 -10 -8 -34 -13 -53 -16 -69 1 -202 30 -237
6 -7 7 -13 4 -13 -4 0 8 -21 26 -47 74 -108 196 -175 323 -178 44 -1 65 2 137
20 23 5 103 48 121 66 47 43 2572 2569 2595 2595 30 34 49 62 58 84 3 8 13 28
22 45 21 40 24 183 5 250 -17 56 -77 155 -95 155 -6 0 -9 2 -7 5 3 2 -577 586
-1287 1297 -1142 1142 -1300 1297 -1356 1325 -93 48 -175 59 -270 37z"/>
</g>
</svg>
