<svg width="26" height="26" viewBox="0 0 26 26" fill="none" xmlns="http://www.w3.org/2000/svg">
<g clip-path="url(#clip0_192_40)">
<path d="M2.16577 21.6667C2.16577 22.8583 3.14077 23.8333 4.33244 23.8333H21.6658C22.8574 23.8333 23.8324 22.8583 23.8324 21.6667V7.58334H18.854C18.3426 4.81434 15.9144 2.70834 12.9991 2.70834C10.0839 2.70834 7.65556 4.81434 7.14423 7.58334H2.16577V21.6667ZM12.9991 3.79167C15.3147 3.79167 17.2539 5.41559 17.7484 7.58334H8.24977C8.74431 5.41559 10.6835 3.79167 12.9991 3.79167ZM7.04077 8.66667V11.9167H8.1241V8.66667H17.8741V11.9167H18.9574V8.66667H22.7491V21.6667C22.7491 22.2641 22.2632 22.75 21.6658 22.75H4.33244C3.73498 22.75 3.2491 22.2641 3.2491 21.6667V8.66667H7.04077Z" fill="#171717" stroke="#171717" stroke-width="0.3"/>
</g>
<defs>
<clipPath id="clip0_192_40">
<rect width="26" height="26" fill="white"/>
</clipPath>
</defs>
</svg>
