<svg width="26" height="26" viewBox="0 0 26 26" fill="none" xmlns="http://www.w3.org/2000/svg">
<g clip-path="url(#clip0_102_65)">
<path d="M2.16602 21.6667C2.16602 22.8583 3.14102 23.8333 4.33268 23.8333H21.666C22.8577 23.8333 23.8327 22.8583 23.8327 21.6667V7.58334H18.8542C18.3429 4.81434 15.9146 2.70834 12.9993 2.70834C10.0841 2.70834 7.65581 4.81434 7.14447 7.58334H2.16602V21.6667ZM12.9993 3.79167C15.315 3.79167 17.2541 5.41559 17.7487 7.58334H8.25002C8.74456 5.41559 10.6837 3.79167 12.9993 3.79167ZM7.04102 8.66667V11.9167H8.12435V8.66667H17.8743V11.9167H18.9577V8.66667H22.7493V21.6667C22.7493 22.2641 22.2635 22.75 21.666 22.75H4.33268C3.73522 22.75 3.24935 22.2641 3.24935 21.6667V8.66667H7.04102Z" fill="white" stroke="white" stroke-width="0.3"/>
</g>
<defs>
<clipPath id="clip0_102_65">
<rect width="26" height="26" fill="white"/>
</clipPath>
</defs>
</svg>
