<svg width="26" height="26" viewBox="0 0 26 26" fill="none" xmlns="http://www.w3.org/2000/svg">
<g clip-path="url(#clip0_192_44)">
<path d="M3.98232 14.6714L13.3715 23.725L22.7606 14.6714C24.3903 13.4444 25.4429 11.4991 25.4429 9.30628C25.4429 5.60458 22.4383 2.6 18.7366 2.6C16.5438 2.6 14.5919 3.65987 13.3715 5.28951C12.1511 3.65987 10.1991 2.6 8.00633 2.6C4.30463 2.6 1.30005 5.60458 1.30005 9.30628C1.30005 11.4991 2.35268 13.4444 3.98232 14.6714ZM8.00633 3.80714C9.72651 3.80714 11.3706 4.63162 12.4052 6.01259L13.3715 7.30303L14.3378 6.01319C15.3723 4.63162 17.0164 3.80714 18.7366 3.80714C21.769 3.80714 24.2358 6.27394 24.2358 9.30628C24.2358 11.0494 23.4336 12.6537 22.0339 13.7069L21.9754 13.751L21.9223 13.8023L13.3715 22.0483L4.82068 13.8023L4.76757 13.751L4.70902 13.7069C3.30994 12.6537 2.50719 11.0494 2.50719 9.30628C2.50719 6.27394 4.97399 3.80714 8.00633 3.80714Z" fill="#171717" stroke="#171717" stroke-width="0.3"/>
</g>
<defs>
<clipPath id="clip0_192_44">
<rect width="26" height="26" fill="white"/>
</clipPath>
</defs>
</svg>
