<svg width="26" height="26" viewBox="0 0 26 26" fill="none" xmlns="http://www.w3.org/2000/svg">
<g clip-path="url(#clip0_102_69)">
<path d="M3.98208 14.6714L13.3712 23.725L22.7604 14.6714C24.39 13.4444 25.4427 11.4991 25.4427 9.30628C25.4427 5.60458 22.4381 2.6 18.7364 2.6C16.5436 2.6 14.5917 3.65987 13.3712 5.28951C12.1508 3.65987 10.1989 2.6 8.00609 2.6C4.30438 2.6 1.2998 5.60458 1.2998 9.30628C1.2998 11.4991 2.35243 13.4444 3.98208 14.6714ZM8.00609 3.80714C9.72626 3.80714 11.3704 4.63162 12.4049 6.01259L13.3712 7.30303L14.3376 6.01319C15.3721 4.63162 17.0162 3.80714 18.7364 3.80714C21.7687 3.80714 24.2355 6.27394 24.2355 9.30628C24.2355 11.0494 23.4334 12.6537 22.0337 13.7069L21.9751 13.751L21.922 13.8023L13.3712 22.0483L4.82044 13.8023L4.76732 13.751L4.70878 13.7069C3.3097 12.6537 2.50695 11.0494 2.50695 9.30628C2.50695 6.27394 4.97374 3.80714 8.00609 3.80714Z" fill="white" stroke="white" stroke-width="0.3"/>
</g>
<defs>
<clipPath id="clip0_102_69">
<rect width="26" height="26" fill="white"/>
</clipPath>
</defs>
</svg>
