<svg width="64" height="64" viewBox="0 0 64 64" fill="none" xmlns="http://www.w3.org/2000/svg">
<g clip-path="url(#clip0_100_233)">
<path d="M31.9999 0C19.8694 0 10.0005 9.86891 10.0005 21.9994V22.0829C10.0005 26.4312 11.1667 30.7103 13.3729 34.4571L30.2228 63.0746C30.5593 63.6461 31.172 63.9977 31.8352 64H31.8417C32.5022 64 33.1147 63.6529 33.454 63.0857L50.541 34.5184C52.8034 30.736 53.9993 26.4069 53.9993 21.9994C53.9993 9.86891 44.1304 0 31.9999 0V0ZM31.8418 31.8614C26.6189 31.8614 22.385 27.6275 22.385 22.4046C22.385 17.1817 26.6189 12.9477 31.8418 12.9477C37.0647 12.9477 41.2987 17.1817 41.2987 22.4046C41.2987 27.6273 37.0647 31.8614 31.8418 31.8614Z" fill="black"/>
</g>
<defs>
<clipPath id="clip0_100_233">
<rect width="64" height="64" fill="white"/>
</clipPath>
</defs>
</svg>
