<svg width="98" height="29" viewBox="0 0 98 29" fill="none" xmlns="http://www.w3.org/2000/svg">
<g clip-path="url(#clip0_102_52)">
<path d="M16.304 1.92309L19.7044 12.0456L23.0646 1.92309H24.8614L20.5424 13.8095H18.8423L14.5312 1.92309H16.304ZM26.7388 1.92309H28.3586V13.8095H26.7388V1.92309ZM30.9693 1.92309H32.8629L38.8418 11.552V1.92309H40.3647V13.8095H38.5678L32.5003 4.18871V13.8095H30.9693V1.92309ZM41.9763 1.92309H43.8458L47.2462 7.6357L50.6466 1.92309H52.524L48.052 9.01935V13.8095H46.4485V9.01935L41.9763 1.92309ZM53.902 1.92309H55.5055V12.3935H61.5005V13.8095H53.902V1.92309ZM20.8727 21.1781C21.6249 21.1781 22.2184 21.0272 22.6535 20.7251C23.094 20.423 23.3143 19.8781 23.3143 19.0906C23.3143 18.2436 23.0082 17.6665 22.3957 17.359C22.0681 17.1971 21.6302 17.1162 21.0823 17.1162H17.1661V21.1781H20.8727ZM15.5627 15.7326H21.042C21.9445 15.7326 22.6884 15.8648 23.274 16.1291C24.386 16.6362 24.942 17.5721 24.942 18.9369C24.942 19.6489 24.7943 20.2315 24.4988 20.6846C24.2087 21.1377 23.8004 21.5018 23.274 21.7769C23.7359 21.9657 24.0825 22.2139 24.3135 22.5214C24.5498 22.8288 24.6814 23.3279 24.7083 24.0184L24.7647 25.6124C24.7808 26.0655 24.8185 26.4026 24.8775 26.6238C24.9742 27.0014 25.1461 27.2441 25.3932 27.352V27.619H23.4271C23.3734 27.5166 23.3304 27.3844 23.2982 27.2226C23.2659 27.0607 23.2391 26.7478 23.2176 26.2839L23.1209 24.3016C23.0833 23.5248 22.796 23.0042 22.2587 22.7399C21.9526 22.5942 21.4718 22.5214 20.8164 22.5214H17.1661V27.619H15.5627V15.7326ZM27.448 15.7326H36.078V17.1891H29.0112V20.7978H35.5461V22.1734H29.0112V26.203H36.1988V27.619H27.448V15.7326ZM43.2898 15.4089C44.7885 15.4089 45.9515 15.8054 46.7788 16.5984C47.6061 17.3914 48.0654 18.2922 48.1568 19.301H46.5934C46.4162 18.535 46.0616 17.9281 45.5298 17.4804C45.0034 17.0327 44.262 16.8088 43.3058 16.8088C42.1402 16.8088 41.1974 17.2214 40.4776 18.0468C39.763 18.8667 39.4059 20.1263 39.4059 21.8255C39.4059 23.2173 39.7282 24.3474 40.3728 25.2159C41.0229 26.079 41.9898 26.5106 43.2737 26.5106C44.4555 26.5106 45.3553 26.0547 45.9731 25.143C46.3006 24.663 46.5451 24.0317 46.7063 23.2496H48.2695C48.1298 24.5011 47.6679 25.5504 46.8836 26.3972C45.9435 27.4167 44.6757 27.9266 43.0803 27.9266C41.7051 27.9266 40.5501 27.5084 39.6153 26.6724C38.3852 25.5665 37.7701 23.8591 37.7701 21.5505C37.7701 19.7972 38.2321 18.3596 39.156 17.2376C40.1552 16.0185 41.5332 15.4089 43.2898 15.4089ZM55.3363 15.4089C57.4259 15.4089 58.973 16.0833 59.9776 17.4318C60.7619 18.4838 61.154 19.8296 61.154 21.4695C61.154 23.2442 60.7055 24.7196 59.8083 25.8956C58.7555 27.2766 57.254 27.9671 55.304 27.9671C53.4829 27.9671 52.0513 27.3629 51.0092 26.1546C50.0798 24.9893 49.6152 23.5167 49.6152 21.7365C49.6152 20.129 50.0127 18.7535 50.8077 17.6099C51.8284 16.1426 53.3379 15.4089 55.3363 15.4089ZM55.4975 26.5267C56.9102 26.5267 57.9309 26.0196 58.5594 25.0055C59.1932 23.9859 59.5102 22.8154 59.5102 21.4938C59.5102 20.0966 59.145 18.9719 58.4143 18.1196C57.6892 17.2673 56.6953 16.8411 55.433 16.8411C54.2081 16.8411 53.209 17.2647 52.4354 18.1115C51.6619 18.953 51.275 20.1964 51.275 21.8417C51.275 23.1579 51.6055 24.2691 52.2662 25.1755C52.9323 26.0762 54.0094 26.5267 55.4975 26.5267ZM68.5753 21.1781C69.3274 21.1781 69.9209 21.0272 70.3561 20.7251C70.7967 20.423 71.0168 19.8781 71.0168 19.0906C71.0168 18.2436 70.7106 17.6665 70.0982 17.359C69.7706 17.1971 69.3328 17.1162 68.7849 17.1162H64.8687V21.1781H68.5753ZM63.2652 15.7326H68.7446C69.647 15.7326 70.391 15.8648 70.9766 16.1291C72.0886 16.6362 72.6445 17.5721 72.6445 18.9369C72.6445 19.6489 72.4969 20.2315 72.2013 20.6846C71.9113 21.1377 71.503 21.5018 70.9766 21.7769C71.4385 21.9657 71.785 22.2139 72.0161 22.5214C72.2523 22.8288 72.3839 23.3279 72.4109 24.0184L72.4673 25.6124C72.4834 26.0655 72.5211 26.4026 72.5801 26.6238C72.6767 27.0014 72.8486 27.2441 73.0958 27.352V27.619H71.1296C71.076 27.5166 71.0329 27.3844 71.0008 27.2226C70.9686 27.0607 70.9416 26.7478 70.9202 26.2839L70.8235 24.3016C70.7858 23.5248 70.4985 23.0042 69.9612 22.7399C69.6551 22.5942 69.1743 22.5214 68.5189 22.5214H64.8687V27.619H63.2652V15.7326ZM79.542 26.2435C80.0847 26.2435 80.5305 26.1869 80.8797 26.0736C81.5028 25.8632 82.0132 25.4585 82.4107 24.8599C82.7276 24.3797 82.9559 23.7648 83.0956 23.015C83.1762 22.5672 83.2165 22.1519 83.2165 21.7689C83.2165 20.2963 82.9237 19.1526 82.3381 18.3381C81.758 17.5236 80.8206 17.1162 79.526 17.1162H76.6815V26.2435H79.542ZM75.07 15.7326H79.8644C81.4921 15.7326 82.7545 16.3125 83.6516 17.4722C84.452 18.5188 84.8523 19.8593 84.8523 21.4938C84.8523 22.756 84.6159 23.897 84.1431 24.9165C83.3105 26.7183 81.8788 27.619 79.8483 27.619H75.07V15.7326ZM87.9706 23.7837C88.0082 24.4579 88.1667 25.0055 88.446 25.4262C88.9779 26.2138 89.9152 26.6076 91.2583 26.6076C91.8599 26.6076 92.4078 26.5213 92.9021 26.3487C93.8582 26.0142 94.3363 25.4155 94.3363 24.5524C94.3363 23.905 94.1349 23.4439 93.732 23.1687C93.3237 22.899 92.6845 22.6643 91.8143 22.4648L90.2106 22.1006C89.1631 21.8632 88.4219 21.6017 87.9868 21.3157C87.2347 20.8195 86.8586 20.0778 86.8586 19.0906C86.8586 18.0225 87.2266 17.1459 87.9626 16.4608C88.6985 15.7757 89.7406 15.4332 91.089 15.4332C92.33 15.4332 93.3828 15.7353 94.2477 16.3394C95.1179 16.9382 95.5531 17.8984 95.5531 19.2201H94.0462C93.9656 18.5835 93.7937 18.0953 93.5305 17.7555C93.0416 17.1351 92.2117 16.825 91.0407 16.825C90.0953 16.825 89.4156 17.0245 89.002 17.4238C88.5883 17.8228 88.3816 18.2868 88.3816 18.8155C88.3816 19.3981 88.6232 19.8243 89.1068 20.094C89.4238 20.2666 90.1409 20.4823 91.2583 20.7412L92.9182 21.1215C93.7185 21.3049 94.3363 21.5558 94.7714 21.874C95.5235 22.4297 95.8996 23.2362 95.8996 24.2934C95.8996 25.6096 95.4214 26.551 94.4653 27.1173C93.5144 27.6838 92.4078 27.9671 91.1454 27.9671C89.6735 27.9671 88.5212 27.5894 87.6886 26.8341C86.856 26.0844 86.4477 25.0675 86.4637 23.7837H87.9706Z" fill="white"/>
<mask id="mask0_102_52" style="mask-type:alpha" maskUnits="userSpaceOnUse" x="-15" y="0" width="28" height="28">
<path d="M12.7366 0H-14.7676V27.619H12.7366V0Z" fill="#D9D9D9"/>
</mask>
<g mask="url(#mask0_102_52)">
<path d="M13.4238 26.9286C20.2593 26.9286 25.8006 21.3641 25.8006 14.5C25.8006 7.63589 20.2593 2.07143 13.4238 2.07143C6.58819 2.07143 1.04688 7.63589 1.04688 14.5C1.04688 21.3641 6.58819 26.9286 13.4238 26.9286Z" stroke="white" stroke-width="2"/>
</g>
</g>
<defs>
<clipPath id="clip0_102_52">
<rect width="98" height="29" fill="white"/>
</clipPath>
</defs>
</svg>
