<svg width="150" height="53" viewBox="0 0 150 53" fill="none" xmlns="http://www.w3.org/2000/svg">
<path d="M2.95156 35.2418L5.67126 30.8519C6.20889 29.9841 6.88801 29.4368 7.70862 29.21C8.52481 28.9804 9.37565 29.14 10.2611 29.6886C11.0227 30.1604 11.54 30.8087 11.8133 31.6335C12.082 32.4556 11.912 33.3581 11.303 34.341L9.40211 37.4093L13.5263 39.9644L12.7075 41.286L2.95156 35.2418ZM9.44077 31.0276C8.72351 30.5832 8.07191 30.5471 7.48595 30.9193C7.16766 31.1265 6.8508 31.4847 6.53535 31.9938L4.906 34.6238L8.28639 36.7181L9.91573 34.0881C10.2833 33.4948 10.4547 32.9363 10.43 32.4125C10.4081 31.8842 10.0783 31.4226 9.44077 31.0276Z" fill="white"/>
<path d="M17.3845 25.0878C17.9174 24.5901 18.2384 24.0907 18.3476 23.5896C18.4607 23.0849 18.2577 22.5547 17.7386 21.999C17.1805 21.4014 16.5831 21.1967 15.9466 21.3851C15.6077 21.4877 15.2442 21.7204 14.8559 22.083L12.0811 24.6746L14.7581 27.5408L17.3845 25.0878ZM10.0331 24.7595L13.9155 21.1333C14.555 20.5361 15.1692 20.137 15.7583 19.936C16.8804 19.5578 17.8912 19.8503 18.7906 20.8133C19.2599 21.3157 19.5392 21.8246 19.6284 22.3398C19.7215 22.8515 19.6722 23.3787 19.4805 23.9212C19.9323 23.7487 20.3413 23.6945 20.7076 23.7585C21.0778 23.8191 21.4999 24.0841 21.9739 24.5535L23.0644 25.6409C23.3745 25.95 23.6233 26.163 23.8109 26.28C24.1283 26.4824 24.4101 26.5399 24.6563 26.4525L24.8323 26.641L23.4391 27.9421C23.3335 27.9053 23.216 27.8405 23.0865 27.7477C22.957 27.6548 22.7318 27.4518 22.4108 27.1387L21.0358 25.8039C20.4972 25.2806 19.9505 25.1035 19.3957 25.2725C19.0827 25.3724 18.6941 25.6392 18.2297 26.0729L15.6433 28.4886L19.0029 32.0856L17.8667 33.1468L10.0331 24.7595Z" fill="white"/>
<path d="M21.7467 15.0835L29.0581 11.0149L29.7419 12.2437L23.7549 15.5753L25.4492 18.62L30.9856 15.5391L31.6315 16.6996L26.095 19.7806L27.9869 23.1802L34.0763 19.7916L34.7411 20.9863L27.3273 25.1119L21.7467 15.0835Z" fill="white"/>
<path d="M34.581 15.5571L38.2239 14.1043L38.7593 15.4468L35.1164 16.8996L34.581 15.5571Z" fill="white"/>
<path d="M46.6423 4.30763C48.5839 3.72868 50.2074 3.92394 51.5128 4.89342C52.5317 5.6494 53.2674 6.78605 53.7199 8.30336C54.2095 9.94546 54.1998 11.4348 53.6907 12.7714C53.0935 14.3409 51.889 15.3957 50.0772 15.936C48.3852 16.4405 46.8883 16.2781 45.5867 15.4489C44.4017 14.6282 43.5637 13.3944 43.0725 11.7473C42.629 10.2599 42.6188 8.87707 43.042 7.59867C43.5855 5.9583 44.7856 4.86129 46.6423 4.30763ZM49.8595 14.5498C51.1721 14.1583 51.9806 13.4064 52.2847 12.2939C52.5924 11.175 52.5639 10.0041 52.1993 8.78125C51.8138 7.48854 51.1641 6.54908 50.2501 5.96289C49.3412 5.37521 48.3002 5.25625 47.1273 5.606C45.9893 5.94533 45.1778 6.61396 44.6927 7.61189C44.2062 8.60483 44.1899 9.86245 44.6438 11.3848C45.007 12.6026 45.6205 13.5392 46.4845 14.1947C47.3519 14.8437 48.4769 14.962 49.8595 14.5498Z" fill="white"/>
<path d="M61.9367 8.00452C62.6653 7.97478 63.2344 7.8056 63.644 7.49697C64.0588 7.18813 64.2507 6.65382 64.2197 5.89403C64.1864 5.07701 63.867 4.53228 63.2617 4.25987C62.9378 4.11671 62.5105 4.05596 61.9797 4.07762L58.186 4.23247L58.3459 8.15108L61.9367 8.00452ZM56.5781 2.96105L61.8862 2.74439C62.7605 2.70871 63.4864 2.80679 64.0641 3.03863C65.1613 3.48384 65.7367 4.36475 65.7905 5.68136C65.8185 6.36829 65.6983 6.93616 65.43 7.38498C65.1668 7.83359 64.7856 8.201 64.2865 8.48722C64.7414 8.65109 65.0869 8.87678 65.3228 9.16427C65.5638 9.45155 65.711 9.92772 65.7642 10.5928L65.8816 12.1283C65.9151 12.5648 65.9648 12.8886 66.0307 13.0996C66.1393 13.4601 66.3153 13.6874 66.559 13.7818L66.5695 14.0394L64.6648 14.1171C64.6087 14.0203 64.5619 13.8945 64.5243 13.7397C64.4867 13.5849 64.4484 13.2841 64.4093 12.8374L64.2376 10.9287C64.1705 10.1809 63.8716 9.69003 63.3408 9.45628C63.0385 9.32788 62.5698 9.27663 61.935 9.30255L58.3988 9.44688L58.5996 14.3647L57.0462 14.4281L56.5781 2.96105Z" fill="white"/>
<path d="M75.1199 12.8936C75.6456 12.9145 76.0797 12.877 76.4223 12.7811C77.034 12.6021 77.5439 12.2314 77.952 11.669C78.2774 11.218 78.5221 10.6335 78.6861 9.91548C78.7813 9.48663 78.8363 9.08745 78.8509 8.71795C78.9073 7.29719 78.6674 6.18264 78.1314 5.37429C77.6005 4.56615 76.7079 4.13719 75.4537 4.08742L72.6981 3.97808L72.3487 12.7836L75.1199 12.8936ZM71.1898 2.58124L75.8346 2.76554C77.4114 2.82812 78.6122 3.4361 79.4369 4.5895C80.1723 5.62989 80.5087 6.93853 80.4461 8.51541C80.3978 9.7332 80.1252 10.8248 79.6282 11.7902C78.7525 13.4964 77.3311 14.3105 75.3639 14.2325L70.7347 14.0488L71.1898 2.58124Z" fill="white"/>
<path d="M86.8621 3.43031L95.1864 4.2761L95.0443 5.67515L88.2278 4.98256L87.8756 8.44909L94.1791 9.08955L94.0448 10.4109L87.7413 9.77041L87.348 13.6411L94.2811 14.3455L94.1429 15.7057L85.702 14.8481L86.8621 3.43031Z" fill="white"/>
<path d="M103.199 11.3984C103.902 11.5926 104.495 11.6053 104.979 11.4365C105.469 11.2691 105.815 10.8189 106.017 10.086C106.235 9.2978 106.097 8.68157 105.604 8.23729C105.339 8.00207 104.951 7.81373 104.439 7.67225L100.779 6.66109L99.7348 10.4413L103.199 11.3984ZM99.6365 4.95937L104.757 6.37415C105.601 6.60718 106.262 6.92228 106.741 7.31946C107.65 8.07848 107.929 9.09305 107.578 10.3632C107.395 11.0258 107.107 11.5299 106.714 11.8753C106.327 12.2221 105.852 12.4555 105.289 12.5757C105.672 12.8706 105.932 13.191 106.069 13.5368C106.211 13.884 106.205 14.3824 106.053 15.0319L105.696 16.53C105.594 16.9558 105.543 17.2793 105.541 17.5004C105.534 17.8768 105.633 18.1471 105.836 18.3113L105.767 18.5598L103.93 18.0521C103.906 17.9429 103.9 17.8088 103.911 17.6498C103.923 17.4909 103.978 17.1928 104.077 16.7555L104.497 14.8856C104.661 14.153 104.527 13.5943 104.092 13.2096C103.844 12.995 103.413 12.8031 102.801 12.6339L99.3894 11.6914L98.0787 16.4355L96.5801 16.0215L99.6365 4.95937Z" fill="white"/>
<path d="M120.196 12.7049L121.675 13.7928L120.834 24.7167L126.344 17.2281L127.533 18.1031L120.732 27.3474L119.329 26.315L120.095 15.3465L114.59 22.8288L113.395 21.9491L120.196 12.7049Z" fill="white"/>
<path d="M135.586 26.2057C136.856 27.7848 137.288 29.3618 136.884 30.9366C136.568 32.1656 135.794 33.2761 134.56 34.2681C133.224 35.3417 131.842 35.8953 130.412 35.9287C128.733 35.9685 127.301 35.2516 126.117 33.778C125.011 32.4019 124.596 30.9546 124.872 29.4361C125.184 28.029 126.01 26.787 127.35 25.7102C128.559 24.7377 129.836 24.206 131.179 24.115C132.904 23.9987 134.373 24.6956 135.586 26.2057ZM127.318 33.0529C128.176 34.1205 129.178 34.585 130.323 34.4465C131.475 34.3088 132.548 33.8401 133.543 33.0407C134.594 32.1955 135.219 31.2391 135.416 30.1714C135.617 29.1078 135.334 28.0991 134.567 27.1451C133.823 26.2196 132.898 25.7207 131.791 25.6485C130.687 25.573 129.517 26.0329 128.279 27.0281C127.288 27.8244 126.653 28.7462 126.372 29.7937C126.099 30.8421 126.414 31.9284 127.318 33.0529Z" fill="white"/>
<path d="M141.21 34.7702L133.697 40.7201L143.246 39.0707L143.967 40.596L136.638 46.9342L146.003 44.8965L146.731 46.4359L135.068 48.6197L134.369 47.1438L141.837 40.6793L132.097 42.3419L131.398 40.8661L140.488 33.2449L141.21 34.7702Z" fill="white"/>
</svg>
