<svg width="26" height="26" viewBox="0 0 26 26" fill="none" xmlns="http://www.w3.org/2000/svg">
<g clip-path="url(#clip0_192_48)">
<path d="M10.5049 18.4096C12.4845 18.4096 14.2896 17.6767 15.6763 16.4746L22.9267 23.725L23.7251 22.9266L16.4747 15.6762C17.6768 14.2895 18.4097 12.4844 18.4097 10.5048C18.4097 6.13909 14.8706 2.6 10.5049 2.6C6.13919 2.6 2.6001 6.13909 2.6001 10.5048C2.6001 14.8705 6.13919 18.4096 10.5049 18.4096ZM10.5049 3.72925C14.241 3.72925 17.2804 6.76865 17.2804 10.5048C17.2804 14.2409 14.241 17.2803 10.5049 17.2803C6.76875 17.2803 3.72935 14.2409 3.72935 10.5048C3.72935 6.76865 6.76875 3.72925 10.5049 3.72925Z" fill="#171717" stroke="#171717" stroke-width="0.3"/>
</g>
<defs>
<clipPath id="clip0_192_48">
<rect width="26" height="26" fill="white"/>
</clipPath>
</defs>
</svg>
