<svg width="16" height="16" viewBox="0 0 16 16" fill="none" xmlns="http://www.w3.org/2000/svg">
<g clip-path="url(#clip0_65_191)">
<path d="M15.8397 15.0324L10.1472 9.33988C12.1466 6.89451 11.7851 3.29133 9.33979 1.2919C6.89446 -0.707535 3.29125 -0.346018 1.29182 2.09931C-0.70761 4.54464 -0.346094 8.14786 2.09923 10.1473C4.20553 11.8695 7.2335 11.8695 9.33979 10.1473L15.0323 15.8398C15.2591 16.0589 15.6206 16.0526 15.8397 15.8258C16.0534 15.6045 16.0534 15.2537 15.8397 15.0324ZM5.72865 10.2969C3.2069 10.294 1.16331 8.25048 1.1605 5.72873C1.1605 3.20581 3.20573 1.16057 5.72865 1.16057C8.25156 1.16057 10.2968 3.20581 10.2968 5.72873C10.2968 8.25165 8.25156 10.2969 5.72865 10.2969Z" fill="#171717"/>
</g>
<defs>
<clipPath id="clip0_65_191">
<rect width="16" height="16" fill="white"/>
</clipPath>
</defs>
</svg>
