<svg width="39" height="42" viewBox="0 0 39 42" fill="none" xmlns="http://www.w3.org/2000/svg">
<g clip-path="url(#clip0_812_2566)">
<g filter="url(#filter0_d_812_2566)">
<path d="M28.4 23.26L28.56 23.08C29.94 24.35 30.87 26.2 30.87 28.28C30.87 32.05 28.12 34.02 24.99 34.03C24.18 34.03 23.35 33.9 22.52 33.64C21.43 33.31 20.33 33.15 19.24 33.15C18.15 33.15 17.06 33.31 15.96 33.64C15.14 33.9 14.3 34.03 13.49 34.03C10.37 34.03 7.61998 32.05 7.60998 28.28C7.60998 26.2 8.52998 24.35 9.91998 23.08C10.9 22.21 11.54 21.25 12.09 19.93C13.24 17.16 16.01 15.21 19.23 15.21C22.45 15.21 25.22 17.17 26.37 19.93C26.92 21.25 27.56 22.21 28.54 23.08L28.38 23.26L28.22 23.44C27.19 22.52 26.49 21.48 25.93 20.12C24.85 17.53 22.26 15.69 19.23 15.69C16.21 15.69 13.61 17.53 12.53 20.12C11.96 21.48 11.27 22.53 10.24 23.44C8.94998 24.63 8.08998 26.35 8.08998 28.28C8.09998 31.78 10.55 33.53 13.49 33.55C14.25 33.55 15.03 33.43 15.81 33.18C16.95 32.84 18.09 32.67 19.23 32.67C20.37 32.67 21.51 32.84 22.65 33.18C23.43 33.42 24.22 33.55 24.97 33.55C27.91 33.53 30.36 31.78 30.37 28.28C30.37 26.34 29.51 24.62 28.22 23.44L28.38 23.26H28.4ZM13.89 4.74V4.5C15.96 4.5 17.58 6.54 17.59 8.98C17.59 11.32 15.96 13.34 13.89 13.35C11.82 13.34 10.31 11.31 10.3 8.98C10.3 6.55 11.81 4.51 13.89 4.5V4.98C12.17 4.98 10.79 6.73 10.78 8.98C10.78 11.12 12.17 12.86 13.89 12.87C15.62 12.87 17.11 11.11 17.11 8.98C17.11 6.74 15.62 4.98 13.89 4.98V4.74ZM24.6 4.74V4.5C26.67 4.5 28.29 6.54 28.3 8.98C28.3 11.32 26.67 13.34 24.6 13.35C22.53 13.34 20.9 11.32 20.9 8.98C20.9 6.54 22.53 4.51 24.6 4.5V4.98C22.88 4.98 21.38 6.74 21.38 8.98C21.38 11.11 22.87 12.86 24.6 12.87C26.32 12.87 27.82 11.11 27.82 8.98C27.82 6.74 26.32 4.98 24.6 4.98V4.74ZM32.63 13.44L32.71 13.21C34.12 13.68 35 15.08 34.99 16.71C34.99 17.19 34.91 17.69 34.76 18.19L34.53 18.12L34.76 18.18C34.26 19.96 32.77 21.26 31.19 21.27C30.9 21.27 30.61 21.23 30.33 21.13L30.41 20.9L30.35 21.13C28.92 20.75 28.05 19.29 28.05 17.64C28.05 17.15 28.13 16.65 28.28 16.14L28.51 16.21L28.28 16.15C28.79 14.33 30.34 13.1 31.94 13.09C32.2 13.09 32.45 13.12 32.71 13.19L32.63 13.42L32.57 13.65C32.36 13.59 32.14 13.57 31.93 13.57C30.59 13.57 29.19 14.64 28.74 16.27C28.6 16.73 28.53 17.19 28.53 17.62C28.53 19.11 29.31 20.34 30.47 20.65C30.7 20.73 30.94 20.76 31.18 20.77C32.48 20.77 33.84 19.64 34.29 18.03C34.43 17.57 34.5 17.12 34.5 16.69C34.5 15.23 33.72 14.04 32.54 13.64L32.62 13.41L32.63 13.44ZM5.84998 13.44L5.92998 13.67C4.74998 14.06 3.97998 15.25 3.96998 16.72C3.96998 17.15 4.03998 17.6 4.17998 18.06C4.61998 19.67 5.98998 20.81 7.28998 20.8C7.52998 20.8 7.76998 20.76 7.99998 20.68C9.19998 20.37 9.99998 19.06 9.99998 17.5C9.99998 17.11 9.94998 16.7 9.83998 16.29L10.07 16.23L9.83998 16.31C9.28998 14.66 7.87998 13.59 6.52998 13.59C6.30998 13.59 6.09998 13.62 5.88998 13.67L5.82998 13.44L5.76998 13.21C6.01998 13.14 6.27998 13.11 6.53998 13.11C8.13998 13.11 9.69998 14.34 10.3 16.15V16.16C10.42 16.61 10.47 17.06 10.47 17.49C10.47 19.2 9.58998 20.74 8.11998 21.14L8.05998 20.91L8.13998 21.14C7.85998 21.23 7.56998 21.28 7.27998 21.28C5.69998 21.28 4.20998 19.97 3.70998 18.19L3.93998 18.13L3.70998 18.2C3.54998 17.7 3.47998 17.2 3.47998 16.72C3.47998 15.09 4.35998 13.69 5.75998 13.22L5.81998 13.45L5.84998 13.44Z" fill="black"/>
<path d="M22.52 33.64C23.35 33.9 24.18 34.03 24.99 34.03C28.12 34.02 30.87 32.05 30.87 28.28C30.87 26.2 29.94 24.35 28.56 23.08L28.4 23.26H28.38M22.52 33.64L22.59 33.41M22.52 33.64C21.43 33.31 20.33 33.15 19.24 33.15C18.15 33.15 17.06 33.31 15.96 33.64M15.96 33.64L15.89 33.41M15.96 33.64C15.14 33.9 14.3 34.03 13.49 34.03C10.37 34.03 7.61998 32.05 7.60998 28.28C7.60998 26.2 8.52998 24.35 9.91998 23.08C10.9 22.21 11.54 21.25 12.09 19.93C13.24 17.16 16.01 15.21 19.23 15.21C22.45 15.21 25.22 17.17 26.37 19.93C26.92 21.25 27.56 22.21 28.54 23.08L28.38 23.26M28.38 23.26L28.22 23.44M28.22 23.44C27.19 22.52 26.49 21.48 25.93 20.12C24.85 17.53 22.26 15.69 19.23 15.69C16.21 15.69 13.61 17.53 12.53 20.12C11.96 21.48 11.27 22.53 10.24 23.44M28.22 23.44C29.51 24.62 30.37 26.34 30.37 28.28C30.36 31.78 27.91 33.53 24.97 33.55C24.22 33.55 23.43 33.42 22.65 33.18C21.51 32.84 20.37 32.67 19.23 32.67C18.09 32.67 16.95 32.84 15.81 33.18C15.03 33.43 14.25 33.55 13.49 33.55C10.55 33.53 8.09998 31.78 8.08998 28.28C8.08998 26.35 8.94998 24.63 10.24 23.44M10.24 23.44L10.08 23.26M13.89 4.5V4.74V4.98M13.89 4.5C15.96 4.5 17.58 6.54 17.59 8.98C17.59 11.32 15.96 13.34 13.89 13.35C11.82 13.34 10.31 11.31 10.3 8.98C10.3 6.55 11.81 4.51 13.89 4.5ZM13.89 4.5V4.98M13.89 4.98C12.17 4.98 10.79 6.73 10.78 8.98C10.78 11.12 12.17 12.86 13.89 12.87C15.62 12.87 17.11 11.11 17.11 8.98C17.11 6.74 15.62 4.98 13.89 4.98ZM24.6 4.5V4.74V4.98M24.6 4.5C26.67 4.5 28.29 6.54 28.3 8.98C28.3 11.32 26.67 13.34 24.6 13.35C22.53 13.34 20.9 11.32 20.9 8.98C20.9 6.54 22.53 4.51 24.6 4.5ZM24.6 4.5V4.98M24.6 4.98C22.88 4.98 21.38 6.74 21.38 8.98C21.38 11.11 22.87 12.86 24.6 12.87C26.32 12.87 27.82 11.11 27.82 8.98C27.82 6.74 26.32 4.98 24.6 4.98ZM32.62 13.41L32.54 13.64C33.72 14.04 34.5 15.23 34.5 16.69C34.5 17.12 34.43 17.57 34.29 18.03C33.84 19.64 32.48 20.77 31.18 20.77C30.94 20.76 30.7 20.73 30.47 20.65C29.31 20.34 28.53 19.11 28.53 17.62C28.53 17.19 28.6 16.73 28.74 16.27C29.19 14.64 30.59 13.57 31.93 13.57C32.14 13.57 32.36 13.59 32.57 13.65L32.63 13.42L32.71 13.19C32.45 13.12 32.2 13.09 31.94 13.09C30.34 13.1 28.79 14.33 28.28 16.15L28.51 16.21L28.28 16.14C28.13 16.65 28.05 17.15 28.05 17.64C28.05 19.29 28.92 20.75 30.35 21.13L30.41 20.9L30.33 21.13C30.61 21.23 30.9 21.27 31.19 21.27C32.77 21.26 34.26 19.96 34.76 18.18L34.53 18.12L34.76 18.19C34.91 17.69 34.99 17.19 34.99 16.71C35 15.08 34.12 13.68 32.71 13.21L32.63 13.44L32.62 13.41ZM32.62 13.41L32.56 13.64M5.82998 13.44L5.88998 13.67C6.09998 13.62 6.30998 13.59 6.52998 13.59C7.87998 13.59 9.28998 14.66 9.83998 16.31L10.07 16.23L9.83998 16.29C9.94998 16.7 9.99998 17.11 9.99998 17.5C9.99998 19.06 9.19998 20.37 7.99998 20.68C7.76998 20.76 7.52998 20.8 7.28998 20.8C5.98998 20.81 4.61998 19.67 4.17998 18.06C4.03998 17.6 3.96998 17.15 3.96998 16.72C3.97998 15.25 4.74998 14.06 5.92998 13.67L5.84998 13.44L5.81998 13.45L5.75998 13.22C4.35998 13.69 3.47998 15.09 3.47998 16.72C3.47998 17.2 3.54998 17.7 3.70998 18.2L3.93998 18.13L3.70998 18.19C4.20998 19.97 5.69998 21.28 7.27998 21.28C7.56998 21.28 7.85998 21.23 8.13998 21.14L8.05998 20.91L8.11998 21.14C9.58998 20.74 10.47 19.2 10.47 17.49C10.47 17.06 10.42 16.61 10.3 16.16V16.15C9.69998 14.34 8.13998 13.11 6.53998 13.11C6.27998 13.11 6.01998 13.14 5.76998 13.21L5.82998 13.44ZM5.82998 13.44L5.90998 13.67" stroke="#1D1D1B" stroke-miterlimit="10"/>
</g>
</g>
<defs>
<filter id="filter0_d_812_2566" x="-0.0200195" y="3" width="36.5103" height="34.5298" filterUnits="userSpaceOnUse" color-interpolation-filters="sRGB">
<feFlood flood-opacity="0" result="BackgroundImageFix"/>
<feColorMatrix in="SourceAlpha" type="matrix" values="0 0 0 0 0 0 0 0 0 0 0 0 0 0 0 0 0 0 127 0" result="hardAlpha"/>
<feOffset dx="-1" dy="1"/>
<feGaussianBlur stdDeviation="1"/>
<feComposite in2="hardAlpha" operator="out"/>
<feColorMatrix type="matrix" values="0 0 0 0 0 0 0 0 0 0 0 0 0 0 0 0 0 0 0.15 0"/>
<feBlend mode="normal" in2="BackgroundImageFix" result="effect1_dropShadow_812_2566"/>
<feBlend mode="normal" in="SourceGraphic" in2="effect1_dropShadow_812_2566" result="shape"/>
</filter>
<clipPath id="clip0_812_2566">
<rect width="39" height="42" fill="white"/>
</clipPath>
</defs>
</svg>
